<?xml version="1.0" encoding="utf-8"?>
<svg xmlns="http://www.w3.org/2000/svg" xmlns:svg="http://www.w3.org/2000/svg" version="1.1" viewBox="0 0 1400 340">
	<title>The titlepage for the Standard Ebooks edition of Man and Wife, by Wilkie Collins</title>
	<g aria-label="MAN AND WIFE">
		<path d="m 370.49049,130 h 17.59065 L 381.15716,52.807016 H 362.44371 L 345.3209,97.345029 328.19809,52.807016 H 309.48464 L 302.56067,130 h 17.59064 l 3.64912,-45.754387 h 0.46784 l 15.81286,45.286547 h 10.47954 l 15.81286,-45.286547 h 0.46784 z"/>
		<path d="M 439.3326,52.807016 H 423.0519 L 391.894,130 h 18.90059 l 5.7076,-15.4386 h 29.38012 L 451.58991,130 h 18.90058 z m 0.5614,46.31579 h -17.40351 l 8.60819,-22.45614 h 0.18713 z"/>
		<path d="m 496.00072,82.093566 h 0.18714 L 526.87791,130 h 17.59065 V 52.807016 h -17.59065 v 47.906434 h -0.18713 L 496.00072,52.807016 H 478.41008 V 130 h 17.59064 z"/>
		<path d="m 630.50221,52.807016 h -16.2807 L 583.06361,130 h 18.90059 l 5.7076,-15.4386 h 29.38012 L 642.75952,130 h 18.90058 z m 0.5614,46.31579 H 613.6601 l 8.60819,-22.45614 h 0.18713 z"/>
		<path d="m 687.17034,82.093566 h 0.18713 L 718.04753,130 h 17.59064 V 52.807016 H 718.04753 V 100.71345 H 717.8604 L 687.17034,52.807016 H 669.57969 V 130 h 17.59065 z"/>
		<path d="M 751.88231,52.807016 V 130 h 22.36257 c 21.23977,0 38.92398,-16.09357 38.92398,-38.643276 0,-22.45614 -17.77778,-38.549708 -38.92398,-38.549708 z M 769.47295,114.2807 V 68.526315 h 2.71345 c 13.09942,0 21.9883,10.011696 21.9883,22.923977 -0.0936,12.912278 -8.98245,22.830408 -21.9883,22.830408 z"/>
		<path d="M 907.73321,130 H 927.1952 L 949.1835,52.807016 H 929.72152 L 916.52853,105.76608 H 916.0607 L 902.02561,52.807016 h -13.28655 l -14.03509,52.959064 h -0.46784 L 861.04315,52.807016 H 841.4876 L 863.4759,130 h 19.55556 l 12.35087,-43.321638 z"/>
		<path d="M 975.99343,52.807016 H 958.40278 V 130 h 17.59065 z"/>
		<path d="M 1036.9086,52.807016 H 992.27705 V 130 h 17.59065 V 99.029239 h 24.9825 V 83.590642 h -24.9825 V 68.245613 h 27.0409 z"/>
		<path d="m 1094.4379,52.807016 h -44.1638 V 130 h 44.1638 v -15.4386 h -26.5731 V 99.029239 h 25.4503 V 83.590642 h -25.4503 V 68.245613 h 26.5731 z"/>
	</g>
	<g aria-label="WILKIE COLLINS">
		<path d="m 419.32511,290 h 14.59649 l 16.49123,-57.89474 h -14.59649 l -9.89474,39.7193 h -0.35087 l -10.52632,-39.7193 h -9.96491 l -10.52632,39.7193 h -0.35087 l -9.89474,-39.7193 H 369.6409 L 386.13213,290 h 14.66667 l 9.26315,-32.49123 z"/>
		<path d="M 471.77029,232.10526 H 458.57731 V 290 h 13.19298 z"/>
		<path d="M 498.42599,232.10526 H 485.23301 V 290 h 33.12281 v -11.57895 h -19.92983 z"/>
		<path d="m 582.54551,290 -26.94737,-30.45614 23.29825,-27.4386 h -16 l -19.85965,23.64913 V 232.10526 H 529.84376 V 290 h 13.19298 V 265.4386 L 564.37007,290 Z"/>
		<path d="M 603.27249,232.10526 H 590.07951 V 290 h 13.19298 z"/>
		<path d="m 649.85801,232.10526 h -33.1228 V 290 h 33.1228 v -11.57895 h -19.92982 v -11.64912 h 19.08772 v -11.57895 h -19.08772 v -11.50877 h 19.92982 z"/>
		<path d="m 715.24507,278.07018 c -13.26315,0 -19.08772,-9.26316 -19.08772,-17.05264 0,-7.71929 5.82457,-16.98245 19.08772,-16.98245 6.73685,0 11.36842,3.57895 11.36842,3.57895 l 5.61404,-11.22807 c 0,0 -6.45614,-5.33334 -19.01754,-5.33334 -16.42106,0 -31.36842,13.47369 -31.36842,30.10527 0,16.5614 15.01754,29.89473 31.36842,29.89473 12.5614,0 19.01754,-5.33333 19.01754,-5.33333 l -5.61404,-11.22807 c 0,0 -4.63157,3.57895 -11.36842,3.57895 z"/>
		<path d="m 739.74727,261.01754 c 0,16.91228 12.07017,30.03509 29.19298,30.03509 16.63158,0 29.1228,-13.12281 29.1228,-30.03509 0,-16.91228 -13.05263,-29.96491 -29.1228,-29.96491 -15.92983,0 -29.19298,13.05263 -29.19298,29.96491 z m 14.24561,0 c 0,-8.63157 4.77193,-17.26315 14.94737,-17.26315 10.24561,0 14.87719,8.63158 14.87719,17.26315 0,8.63158 -4.35088,17.26316 -14.87719,17.26316 -10.80702,0 -14.94737,-8.63158 -14.94737,-17.26316 z"/>
		<path d="M 822.0773,232.10526 H 808.88431 V 290 h 33.12281 V 278.42105 H 822.0773 Z"/>
		<path d="M 866.68805,232.10526 H 853.49506 V 290 h 33.12281 v -11.57895 h -19.92982 z"/>
		<path d="M 911.29876,232.10526 H 898.10578 V 290 h 13.19298 z"/>
		<path d="m 937.95446,254.07018 h 0.14035 L 961.11236,290 h 13.19298 v -57.89474 h -13.19298 v 35.92983 h -0.14035 L 937.95446,232.10526 H 924.76148 V 290 h 13.19298 z"/>
		<path d="m 1007.7012,231.05263 c -9.33333,0 -18.87719,6.8772 -18.87719,17.68421 0,6.03509 4.07017,11.4386 11.01754,14.8772 6.87715,3.43859 13.05265,5.33333 13.05265,9.54385 0,5.40351 -5.4737,5.68422 -8.3509,5.68422 -6.45614,0 -14.17543,-6.52632 -14.17543,-6.52632 l -6.5965,11.08772 c 0,0 8.21053,7.64912 21.75443,7.64912 11.2982,0 21.8245,-4.8421 21.8245,-18.66666 0,-7.57895 -7.0877,-13.05264 -13.5438,-15.78948 -6.5965,-2.80702 -12.0702,-5.12281 -12.0702,-8.35088 0,-3.15789 2.386,-5.19298 6.8772,-5.19298 5.9649,0 11.7193,4 11.7193,4 l 5.3333,-10.52631 c 0,0 -7.4386,-5.47369 -17.9649,-5.47369 z"/>
	</g>
</svg>
